<?xml version="1.0" encoding="UTF-8"?>
<svg id="Layer_1" data-name="Layer 1" xmlns="http://www.w3.org/2000/svg" viewBox="0 0 460 381">
  <g>
    <path d="M172.84,92.81c-1.76.21-3.42.4-5.01.56-1.6.17-3.13.31-4.62.44-1.49.13-2.95.24-4.39.34-1.45.1-2.88.18-4.34.25-1.46.07-2.94.12-4.48.16-1.54.04-3.09.06-4.84.06-1.75,0-3.6-.01-5.6-.04-1.99-.03-4.13-.07-6.45-.13,1.06-1.58,2.02-3.12,2.92-4.61s1.72-2.94,2.5-4.35c.78-1.41,1.51-2.79,2.21-4.13.7-1.35,1.37-2.66,2.02-3.96.65-1.3,1.28-2.57,1.91-3.83.63-1.26,1.26-2.51,1.91-3.77.65-1.25,1.31-2.51,1.99-3.77s1.39-2.54,2.13-3.83c.74-1.29,1.52-2.6,2.36-3.94.83-1.34,1.72-2.7,2.67-4.1.95-1.4,1.98-2.83,3.1-4.3s2.33-2.98,3.65-4.52c1.91-.18,3.72-.39,5.44-.59s3.37-.43,4.96-.65c1.59-.22,3.12-.45,4.62-.67s2.96-.46,4.41-.69c1.45-.23,2.89-.47,4.35-.72,1.45-.24,2.92-.49,4.42-.75,1.5-.26,3.04-.52,4.64-.8,1.6-.27,3.25-.56,4.99-.85,1.74-.29,3.56-.6,5.49-.9-1.29,1.5-2.5,2.97-3.66,4.43-1.15,1.45-2.24,2.89-3.27,4.3s-2.02,2.79-2.95,4.16c-.94,1.36-1.83,2.71-2.69,4.04-.86,1.33-1.68,2.64-2.48,3.94-.8,1.3-1.57,2.6-2.33,3.89-.75,1.29-1.49,2.58-2.22,3.88-.73,1.3-1.44,2.6-2.15,3.91-.71,1.31-1.41,2.64-2.12,3.99-.71,1.35-1.42,2.72-2.13,4.12-.72,1.4-1.44,2.82-2.19,4.28-.74,1.46-1.51,2.95-2.29,4.48s-1.6,3.1-2.46,4.7Z" style="fill: #437e71;"/>
    <path d="M167.49,136.82c-1.78.21-3.46.41-5.06.6-1.6.19-3.13.37-4.6.53-1.47.17-2.89.33-4.28.48-1.39.15-2.75.29-4.1.43-1.35.14-2.69.27-4.05.39s-2.73.25-4.13.36c-1.41.11-2.85.22-4.36.32-1.51.1-3.08.19-4.74.28-1.66.08-3.4.15-5.26.21,1.84-1.34,3.59-2.64,5.28-3.9,1.68-1.26,3.29-2.47,4.82-3.66,1.54-1.18,3-2.33,4.4-3.45,1.4-1.12,2.74-2.21,4.02-3.28,1.28-1.07,2.51-2.12,3.68-3.15,1.18-1.03,2.3-2.05,3.39-3.06,1.09-1.01,2.13-2.01,3.14-3.01s1.98-2,2.91-3c.94-1,1.84-2.01,2.71-3.03.87-1.02,1.69-2.03,2.45-3.09s1.52-2.14,2.27-3.28,1.5-2.32,2.25-3.56,1.5-2.53,2.27-3.89c.76-1.36,1.54-2.78,2.34-4.27,1.76-.21,3.39-.42,4.93-.62s3-.4,4.39-.58c1.4-.19,2.74-.37,4.06-.55,1.32-.18,2.61-.35,3.91-.52,1.3-.17,2.6-.34,3.93-.5,1.34-.17,2.71-.33,4.15-.49,1.44-.16,2.95-.32,4.56-.48,1.61-.16,3.33-.31,5.19-.45-1.15,1.66-2.25,3.23-3.3,4.73-1.05,1.5-2.06,2.92-3.04,4.27-.98,1.35-1.92,2.64-2.84,3.87-.92,1.23-1.82,2.41-2.7,3.54s-1.67,2.21-2.5,3.3-1.67,2.16-2.53,3.23c-.86,1.07-1.73,2.14-2.63,3.22-.9,1.08-1.82,2.16-2.78,3.26-.96,1.1-1.94,2.22-2.98,3.36-1.03,1.14-2.11,2.31-3.24,3.5-1.13,1.2-2.31,2.43-3.56,3.7-1.25,1.27-2.56,2.59-3.96,3.96-1.39,1.37-2.86,2.78-4.42,4.26Z" style="fill: #437e71;"/>
    <path d="M207.95,88.62c-1.87.14-3.58.29-5.19.45-1.61.16-3.12.32-4.56.48-1.44.16-2.81.33-4.15.49-1.34.17-2.64.33-3.93.5-1.3.17-2.59.34-3.91.52-1.32.18-2.66.36-4.06.55-1.4.19-2.85.38-4.39.58s-3.17.41-4.93.62c.86-1.61,1.67-3.17,2.46-4.7s1.55-3.02,2.29-4.48c.74-1.46,1.47-2.88,2.19-4.28.72-1.4,1.43-2.77,2.13-4.12.71-1.35,1.41-2.68,2.12-3.99.71-1.31,1.42-2.61,2.15-3.91.73-1.29,1.46-2.58,2.22-3.88.75-1.29,1.53-2.58,2.33-3.89.8-1.3,1.62-2.61,2.48-3.94.86-1.33,1.75-2.67,2.69-4.04.94-1.36,1.92-2.75,2.95-4.16s2.12-2.84,3.27-4.3c1.15-1.45,2.37-2.93,3.66-4.43,1.93-.31,3.75-.59,5.48-.85,1.73-.26,3.38-.49,4.97-.7,1.59-.21,3.11-.4,4.6-.57,1.49-.17,2.94-.32,4.38-.46,1.44-.13,2.86-.25,4.29-.35,1.43-.1,2.87-.18,4.35-.25,1.47-.06,2.98-.11,4.54-.13,1.56-.02,3.16,0,4.81.07,1.65.07,3.34.18,5.1.36-1.12,1.22-2.21,2.43-3.27,3.64-1.06,1.21-2.09,2.41-3.1,3.6-1.01,1.19-2,2.38-2.96,3.55-.97,1.18-1.92,2.35-2.86,3.52-.94,1.17-1.85,2.32-2.78,3.5-.93,1.18-1.85,2.35-2.76,3.53s-1.81,2.36-2.71,3.55c-.9,1.19-1.79,2.38-2.69,3.59-.89,1.21-1.79,2.43-2.69,3.67-.9,1.24-1.81,2.5-2.73,3.78-.92,1.28-1.84,2.59-2.79,3.93s-1.9,2.7-2.87,4.1-1.97,2.83-2.99,4.3c-1.02,1.47-2.06,2.97-3.13,4.51Z" style="fill: #fff;"/>
    <path d="M126.9,140.42c-1.86.05-3.63.08-5.33.09-1.7,0-3.33,0-4.9-.03-1.58-.03-3.1-.07-4.6-.12-1.5-.05-2.96-.11-4.42-.18s-2.91-.15-4.38-.24c-1.47-.09-2.96-.19-4.48-.29-1.53-.11-3.09-.22-4.72-.35-1.63-.13-3.33-.27-5.11-.42s-3.66-.32-5.64-.5c1.62-1.23,3.21-2.41,4.76-3.56s3.06-2.26,4.54-3.35c1.47-1.08,2.91-2.14,4.31-3.17,1.4-1.03,2.76-2.03,4.09-3.02,1.33-.99,2.63-1.95,3.9-2.91,1.27-.95,2.51-1.9,3.72-2.83s2.4-1.86,3.56-2.79c1.16-.93,2.3-1.85,3.41-2.78,1.11-.93,2.21-1.86,3.27-2.81,1.07-.94,2.08-1.9,3.04-2.89.97-.99,1.92-2.01,2.87-3.07s1.88-2.15,2.81-3.3c.93-1.14,1.85-2.33,2.77-3.57.92-1.24,1.83-2.54,2.73-3.89,2.32.06,4.46.1,6.45.13,1.99.03,3.85.04,5.6.04,1.75,0,3.3-.02,4.84-.06,1.54-.04,3.02-.09,4.48-.16,1.46-.07,2.9-.15,4.34-.25,1.45-.1,2.9-.21,4.39-.34,1.49-.13,3.02-.27,4.62-.44,1.6-.17,3.26-.35,5.01-.56-.8,1.49-1.57,2.91-2.34,4.27-.76,1.36-1.52,2.65-2.27,3.89s-1.5,2.42-2.25,3.56-1.51,2.23-2.27,3.28-1.58,2.07-2.45,3.09c-.87,1.02-1.78,2.02-2.71,3.03-.94,1-1.91,2-2.91,3s-2.05,2-3.14,3.01c-1.09,1.01-2.21,2.03-3.39,3.06-1.18,1.03-2.4,2.08-3.68,3.15-1.28,1.07-2.62,2.16-4.02,3.28-1.4,1.12-2.87,2.27-4.4,3.45-1.54,1.18-3.14,2.4-4.82,3.66-1.68,1.26-3.44,2.55-5.28,3.9Z" style="fill: #fff;"/>
    <path d="M248.37,87.91c-1.77-.02-3.46-.03-5.07-.04-1.61,0-3.16-.01-4.66-.01-1.5,0-2.95,0-4.37.01s-2.82.02-4.22.04c-1.4.02-2.79.04-4.21.07-1.42.03-2.86.05-4.28.07-1.42.01-2.85.04-4.32.09-1.46.05-2.96.11-4.5.19s-3.13.18-4.79.31c1.07-1.54,2.11-3.04,3.13-4.51,1.02-1.47,2.01-2.9,2.99-4.3s1.93-2.77,2.87-4.1,1.87-2.65,2.79-3.93c.92-1.28,1.82-2.54,2.73-3.78.9-1.24,1.8-2.46,2.69-3.67.89-1.21,1.79-2.4,2.69-3.59.9-1.19,1.8-2.37,2.71-3.55s1.83-2.36,2.76-3.53c.93-1.18,1.85-2.33,2.78-3.5.94-1.17,1.89-2.34,2.86-3.52.97-1.18,1.96-2.36,2.96-3.55,1.01-1.19,2.04-2.39,3.1-3.6,1.06-1.21,2.15-2.42,3.27-3.64,1.98.2,3.8.44,5.5.7s3.29.56,4.8.87c1.51.31,2.94.63,4.34.96,1.39.33,2.75.68,4.09,1.04,1.34.36,2.68.73,4.04,1.12,1.36.39,2.73.8,4.16,1.23,1.43.43,2.91.88,4.48,1.35,1.56.47,3.21.97,4.98,1.49-1.2,1.24-2.34,2.43-3.43,3.6-1.09,1.16-2.13,2.29-3.14,3.4-1.01,1.11-1.98,2.2-2.93,3.27s-1.87,2.14-2.78,3.2c-.91,1.06-1.81,2.12-2.7,3.18s-1.78,2.13-2.67,3.22c-.89,1.08-1.79,2.18-2.7,3.31-.91,1.13-1.84,2.28-2.79,3.47s-1.92,2.41-2.93,3.69-2.05,2.59-3.13,3.97-2.21,2.81-3.39,4.32c-1.18,1.5-2.42,3.07-3.72,4.71Z" style="fill: #437e71;"/>
    <path d="M247.15,129.76c-1.84.29-3.58.57-5.23.82s-3.22.49-4.74.71-2.99.42-4.44.61c-1.45.19-2.88.36-4.32.52-1.44.16-2.89.31-4.39.45-1.5.14-3.04.27-4.66.38s-3.33.21-5.15.28-3.77.13-5.89.14c1.25-1.36,2.45-2.67,3.6-3.94,1.16-1.27,2.27-2.49,3.35-3.67,1.08-1.19,2.13-2.33,3.15-3.45,1.02-1.12,2.02-2.21,2.99-3.28.98-1.07,1.93-2.12,2.88-3.17s1.88-2.07,2.8-3.1c.93-1.03,1.85-2.05,2.77-3.09.92-1.03,1.84-2.08,2.77-3.13s1.84-2.13,2.82-3.25,1.97-2.28,2.98-3.48c1.02-1.2,2.06-2.45,3.12-3.76s2.17-2.65,3.3-4.06,2.29-2.86,3.49-4.38c2,.02,3.86.05,5.62.07s3.43.06,5.03.08c1.6.03,3.14.06,4.64.09,1.51.03,2.98.06,4.45.08,1.47.03,2.95.05,4.46.08,1.51.03,3.05.05,4.66.08,1.61.02,3.28.05,5.05.07s3.65.04,5.66.05c-1.18,1.34-2.33,2.65-3.44,3.93s-2.21,2.53-3.28,3.75c-1.07,1.22-2.12,2.42-3.16,3.6-1.04,1.18-2.05,2.34-3.09,3.48-1.04,1.14-2.09,2.23-3.14,3.29-1.05,1.06-2.1,2.1-3.16,3.13-1.06,1.03-2.13,2.04-3.21,3.05-1.08,1.01-2.19,2.03-3.31,3.06-1.12,1.03-2.27,2.08-3.45,3.15-1.18,1.07-2.38,2.18-3.62,3.32s-2.52,2.33-3.84,3.57c-1.32,1.24-2.68,2.54-4.09,3.92Z" style="fill: #437e71;"/>
    <path d="M287.95,88.51c-2.01-.01-3.89-.03-5.66-.05s-3.45-.04-5.05-.07c-1.61-.02-3.15-.05-4.66-.08-1.51-.03-2.98-.05-4.46-.08-1.47-.03-2.95-.06-4.45-.08-1.51-.03-3.04-.06-4.64-.09-1.6-.03-3.27-.06-5.03-.08s-3.62-.05-5.62-.07c1.3-1.64,2.54-3.21,3.72-4.71,1.18-1.5,2.31-2.94,3.39-4.32s2.12-2.7,3.13-3.97,1.98-2.5,2.93-3.69,1.87-2.34,2.79-3.47c.91-1.13,1.81-2.23,2.7-3.31.89-1.08,1.78-2.15,2.67-3.22s1.79-2.12,2.7-3.18c.91-1.06,1.83-2.12,2.78-3.2s1.92-2.16,2.93-3.27c1.01-1.11,2.05-2.24,3.14-3.4,1.09-1.16,2.23-2.36,3.43-3.6,1.77.52,3.43.99,5.02,1.42,1.59.43,3.11.82,4.59,1.18s2.91.68,4.33.97c1.42.29,2.83.55,4.26.79s2.87.44,4.37.62c1.5.18,3.05.33,4.69.44,1.64.11,3.37.18,5.24.2,1.87.02,3.88-.03,6.03-.16-1.46,1.64-2.83,3.15-4.14,4.57-1.3,1.42-2.54,2.76-3.69,3.98-1.14,1.22-2.22,2.37-3.26,3.48-1.03,1.1-2.03,2.15-2.99,3.18-.96,1.03-1.9,2.02-2.83,3.01-.93.99-1.84,1.97-2.76,2.95s-1.83,1.98-2.77,2.99c-.93,1.01-1.88,2.05-2.86,3.13-.98,1.07-1.98,2.19-3.03,3.36-1.05,1.17-2.14,2.39-3.29,3.69-1.15,1.3-2.36,2.67-3.65,4.13Z" style="fill: #fff;"/>
    <path d="M208.35,133.67c-1.88.01-3.65.05-5.32.1-1.68.05-3.26.12-4.79.19-1.52.08-2.98.16-4.4.26-1.42.09-2.8.2-4.17.3s-2.72.23-4.07.35c-1.36.12-2.72.26-4.12.4s-2.82.29-4.3.45-3.01.33-4.62.52c-1.61.18-3.29.38-5.07.59,1.56-1.48,3.02-2.89,4.42-4.26,1.39-1.37,2.71-2.68,3.96-3.96,1.25-1.27,2.43-2.51,3.56-3.7,1.13-1.2,2.21-2.36,3.24-3.5,1.03-1.14,2.02-2.26,2.98-3.36.96-1.1,1.88-2.19,2.78-3.26.9-1.08,1.77-2.15,2.63-3.22.86-1.07,1.7-2.15,2.53-3.23s1.62-2.17,2.5-3.3,1.78-2.31,2.7-3.54c.92-1.23,1.86-2.52,2.84-3.87.98-1.35,1.98-2.77,3.04-4.27,1.05-1.5,2.15-3.07,3.3-4.73,1.66-.12,3.25-.23,4.79-.31s3.04-.14,4.5-.19c1.46-.05,2.9-.07,4.32-.09,1.42-.01,2.87-.04,4.28-.07,1.42-.03,2.81-.05,4.21-.07,1.4-.02,2.8-.03,4.22-.04s2.87-.01,4.37-.01c1.5,0,3.04,0,4.66.01,1.61,0,3.3.02,5.07.04-1.2,1.52-2.36,2.97-3.49,4.38s-2.23,2.76-3.3,4.06-2.11,2.55-3.12,3.76c-1.02,1.2-2.01,2.36-2.98,3.48s-1.89,2.19-2.82,3.25-1.85,2.1-2.77,3.13c-.92,1.03-1.84,2.06-2.77,3.09-.93,1.03-1.86,2.06-2.8,3.1s-1.9,2.09-2.88,3.17c-.98,1.07-1.97,2.16-2.99,3.28-1.02,1.12-2.07,2.27-3.15,3.45-1.08,1.19-2.2,2.41-3.35,3.67-1.16,1.27-2.35,2.58-3.6,3.94Z" style="fill: #fff;"/>
    <path d="M328.13,88.06c-1.61.06-3.16.12-4.66.16-1.5.04-2.96.08-4.38.1-1.42.02-2.82.04-4.21.04-1.39,0-2.76,0-4.16,0s-2.81,0-4.23.03c-1.42.03-2.84.05-4.28.07s-2.91.04-4.43.05-3.08.02-4.71.02-3.33,0-5.12-.01c1.29-1.46,2.5-2.83,3.65-4.13,1.15-1.3,2.24-2.52,3.29-3.69,1.05-1.17,2.06-2.28,3.03-3.36.98-1.07,1.93-2.11,2.86-3.13.93-1.01,1.85-2.01,2.77-2.99s1.83-1.96,2.76-2.95c.93-.99,1.86-1.99,2.83-3.01.96-1.03,1.96-2.08,2.99-3.18,1.03-1.1,2.11-2.25,3.26-3.48,1.14-1.22,2.39-2.56,3.69-3.98,1.3-1.42,2.67-2.94,4.14-4.57,1.73-.1,3.38-.24,4.98-.4,1.6-.16,3.14-.35,4.63-.55,1.49-.2,2.94-.42,4.36-.66,1.42-.23,2.81-.48,4.19-.73s2.74-.52,4.11-.8c1.37-.28,2.74-.57,4.13-.87s2.81-.62,4.26-.95c1.45-.33,2.95-.68,4.5-1.05,1.55-.37,3.16-.75,4.84-1.16,1.68-.4,3.44-.83,5.29-1.28-1.33,1.57-2.62,3.08-3.87,4.54s-2.45,2.86-3.62,4.21-2.3,2.66-3.39,3.92-2.16,2.48-3.19,3.67c-1.04,1.19-2.04,2.34-3.03,3.47-.99,1.13-1.96,2.24-2.91,3.33-.96,1.09-1.9,2.17-2.83,3.23-.94,1.07-1.86,2.13-2.79,3.19-.93,1.06-1.86,2.12-2.79,3.19s-1.88,2.14-2.83,3.24c-.95,1.09-1.92,2.2-2.91,3.33-.99,1.13-1.99,2.28-3.02,3.47s-2.09,2.4-3.18,3.66Z" style="fill: #437e71;"/>
    <path d="M322.65,123.95c-1.69.1-3.28.19-4.8.27-1.52.08-2.98.16-4.4.23-1.42.07-2.8.13-4.17.19-1.37.06-2.73.11-4.1.16-1.38.05-2.77.1-4.22.14-1.45.04-2.95.08-4.55.12-1.6.03-3.29.06-5.11.09-1.83.02-3.83.04-5.89.11,1.68-1.05,3.3-2.04,4.86-3,1.56-.96,3.08-1.87,4.52-2.77,1.42-.89,2.78-1.79,4.08-2.68,1.3-.88,2.54-1.77,3.74-2.65,1.2-.89,2.36-1.78,3.48-2.68s2.22-1.83,3.29-2.78,2.13-1.93,3.17-2.96c1.04-1.02,2.07-2.09,3.1-3.22,1.03-1.13,1.98-2.26,2.96-3.4.98-1.14,1.97-2.29,2.99-3.48s2.06-2.39,3.15-3.65c1.09-1.26,2.21-2.56,3.39-3.92,2.07-.08,3.96-.17,5.72-.27,1.76-.09,3.4-.19,4.97-.28,1.57-.09,3.06-.19,4.53-.28s2.92-.19,4.38-.29c1.47-.1,2.95-.19,4.5-.29s3.17-.2,4.9-.3c1.73-.1,3.58-.2,5.61-.3-1.61,1.63-3.11,3.17-4.53,4.63-1.42,1.46-2.76,2.84-4.03,4.15-1.27,1.32-2.47,2.57-3.62,3.78-1.15,1.21-2.25,2.38-3.28,3.48s-2.01,2.12-2.97,3.11c-.96.99-1.91,1.93-2.84,2.85-.94.91-1.86,1.8-2.8,2.67-.93.87-1.88,1.72-2.84,2.57-.96.85-1.94,1.69-2.94,2.54s-2.05,1.7-3.13,2.57c-1.08.87-2.21,1.76-3.39,2.68s-2.42,1.87-3.73,2.87Z" style="fill: #437e71;"/>
    <path d="M362.75,86.06c-2.02.1-3.87.2-5.61.3-1.73.1-3.35.2-4.9.3s-3.04.2-4.5.29c-1.47.1-2.91.19-4.38.29s-2.97.19-4.53.28c-1.57.09-3.21.19-4.97.28-1.76.09-3.65.18-5.72.27,1.09-1.26,2.15-2.48,3.18-3.66s2.03-2.34,3.02-3.47c.99-1.13,1.95-2.24,2.91-3.33.95-1.09,1.9-2.17,2.83-3.24s1.86-2.13,2.79-3.19c.93-1.06,1.86-2.12,2.79-3.19.94-1.07,1.88-2.14,2.83-3.23.96-1.09,1.92-2.2,2.91-3.33.99-1.13,2-2.29,3.03-3.47,1.04-1.19,2.1-2.41,3.19-3.67s2.23-2.57,3.39-3.92,2.37-2.76,3.62-4.21,2.54-2.97,3.87-4.54c1.85-.45,3.61-.86,5.29-1.26s3.28-.77,4.83-1.12c1.55-.35,3.03-.68,4.48-.99,1.45-.31,2.85-.6,4.24-.88,1.38-.27,2.74-.53,4.1-.78,1.36-.24,2.71-.47,4.07-.69,1.36-.22,2.74-.42,4.14-.6,1.4-.18,2.83-.35,4.31-.5,1.47-.15,2.99-.27,4.56-.36s3.2-.15,4.9-.17c-1.09,1.19-2.2,2.38-3.32,3.57-1.12,1.19-2.24,2.37-3.36,3.55-1.12,1.18-2.24,2.34-3.35,3.5-1.11,1.15-2.22,2.3-3.32,3.43-1.1,1.13-2.19,2.25-3.28,3.36-1.09,1.11-2.17,2.21-3.25,3.31-1.08,1.1-2.15,2.18-3.23,3.27-1.07,1.09-2.15,2.17-3.23,3.26-1.08,1.09-2.16,2.18-3.25,3.27-1.09,1.1-2.18,2.2-3.29,3.31-1.11,1.11-2.22,2.24-3.36,3.38-1.13,1.14-2.28,2.29-3.44,3.46-1.16,1.17-2.35,2.36-3.55,3.57-1.2,1.21-2.42,2.44-3.67,3.7-1.24,1.26-2.51,2.54-3.79,3.84Z" style="fill: #fff;"/>
    <path d="M285.4,125.26c-2.06.07-3.96.17-5.74.29s-3.45.26-5.04.4-3.1.3-4.57.47c-1.47.17-2.9.34-4.32.53-1.42.18-2.83.38-4.26.58s-2.89.42-4.39.65c-1.51.23-3.07.48-4.71.74s-3.37.54-5.21.83c1.41-1.38,2.77-2.68,4.09-3.92,1.32-1.24,2.6-2.43,3.84-3.57s2.45-2.25,3.62-3.32c1.18-1.07,2.32-2.12,3.45-3.15,1.12-1.03,2.22-2.05,3.31-3.06,1.08-1.01,2.15-2.03,3.21-3.05,1.06-1.03,2.11-2.06,3.16-3.13,1.05-1.06,2.09-2.16,3.14-3.29,1.04-1.14,2.06-2.3,3.09-3.48,1.04-1.18,2.09-2.37,3.16-3.6,1.07-1.22,2.16-2.47,3.28-3.75s2.27-2.58,3.44-3.93c1.79.01,3.49.02,5.12.01s3.19,0,4.71-.02,2.99-.03,4.43-.05,2.86-.04,4.28-.07c1.42-.03,2.84-.04,4.23-.03s2.77.01,4.16,0c1.39,0,2.78-.02,4.21-.04,1.42-.02,2.88-.06,4.38-.1,1.5-.04,3.05-.1,4.66-.16-1.18,1.36-2.31,2.67-3.39,3.92-1.09,1.26-2.13,2.47-3.15,3.65s-2.01,2.34-2.99,3.48c-.98,1.14-1.93,2.27-2.96,3.4-1.03,1.13-2.06,2.2-3.1,3.22-1.04,1.02-2.09,2.01-3.17,2.96s-2.17,1.88-3.29,2.78-2.28,1.8-3.48,2.68c-1.2.89-2.44,1.77-3.74,2.65-1.3.88-2.66,1.79-4.08,2.68-1.44.9-2.96,1.82-4.52,2.77-1.56.96-3.18,1.95-4.86,3Z" style="fill: #fff;"/>
    <path d="M77.28,184.34c-1.95-.16-3.75-.33-5.46-.5-1.71-.17-3.32-.34-4.86-.51-1.54-.17-3.02-.34-4.47-.51-1.45-.17-2.86-.34-4.28-.51-1.41-.17-2.83-.34-4.27-.52s-2.92-.35-4.45-.53c-1.54-.18-3.13-.36-4.83-.55s-3.48-.37-5.41-.56c1.14-1.27,2.24-2.49,3.3-3.67,1.06-1.18,2.08-2.31,3.07-3.42.99-1.1,1.96-2.17,2.9-3.21.94-1.04,1.87-2.06,2.78-3.06.91-1,1.78-1.98,2.69-2.95.91-.97,1.83-1.93,2.78-2.89.95-.96,1.92-1.92,2.93-2.88s2.04-1.93,3.11-2.92,2.19-1.98,3.36-3c1.17-1.02,2.38-2.06,3.66-3.13s2.62-2.17,4.04-3.31c1.41-1.14,2.9-2.31,4.47-3.54,1.57-1.22,3.23-2.49,4.98-3.81,1.99.18,3.86.35,5.64.5s3.48.29,5.11.42c1.63.13,3.2.25,4.72.35,1.53.11,3.01.2,4.48.29,1.47.09,2.92.17,4.38.24s2.93.13,4.42.18c1.5.05,3.02.09,4.6.12,1.58.03,3.2.04,4.9.03,1.7,0,3.47-.03,5.33-.09-1.84,1.34-3.62,2.63-5.34,3.88-1.72,1.25-3.39,2.45-4.99,3.62-1.61,1.17-3.13,2.29-4.6,3.38-1.46,1.09-2.87,2.15-4.22,3.19-1.35,1.04-2.64,2.05-3.89,3.04-1.25.99-2.45,1.97-3.6,2.93-1.16.96-2.27,1.92-3.35,2.86-1.08.95-2.12,1.89-3.13,2.83-1.01.94-1.99,1.89-2.93,2.84-.94.95-1.84,1.91-2.7,2.87s-1.73,1.93-2.61,2.92c-.87.99-1.76,2-2.65,3.03s-1.81,2.09-2.74,3.17c-.93,1.08-1.88,2.2-2.86,3.35Z" style="fill: #437e71;"/>
    <path d="M83.13,227.11c-1.87-.02-3.63-.05-5.31-.09-1.68-.04-3.27-.1-4.8-.15-1.53-.06-3-.12-4.44-.19s-2.83-.14-4.22-.22-2.76-.16-4.14-.25c-1.38-.09-2.78-.18-4.2-.28s-2.88-.2-4.4-.31c-1.51-.11-3.08-.23-4.73-.35s-3.37-.25-5.2-.39c1.45-1.53,2.81-2.99,4.1-4.38,1.29-1.39,2.51-2.72,3.67-3.99,1.17-1.28,2.28-2.5,3.35-3.7,1.07-1.19,2.1-2.35,3.1-3.48,1-1.13,1.98-2.24,2.94-3.35s1.91-2.19,2.86-3.29c.95-1.1,1.89-2.2,2.84-3.31.95-1.12,1.92-2.25,2.9-3.41s1.99-2.35,3.03-3.59,2.12-2.51,3.24-3.84c1.13-1.33,2.3-2.72,3.55-4.19,1.73.14,3.38.27,4.96.37,1.58.1,3.1.19,4.58.26s2.91.12,4.33.16,2.81.06,4.2.07,2.79.02,4.22,0c1.43-.01,2.89-.05,4.4-.1,1.52-.06,3.09-.14,4.74-.25,1.65-.11,3.39-.24,5.23-.41,1.84-.17,3.8-.36,5.89-.59-1.25,1.44-2.42,2.82-3.54,4.14-1.12,1.32-2.19,2.59-3.22,3.82-1.03,1.23-2.02,2.42-2.99,3.58s-1.9,2.3-2.83,3.42c-.92,1.12-1.83,2.22-2.73,3.31-.9,1.09-1.79,2.18-2.69,3.27-.9,1.09-1.8,2.18-2.71,3.28-.91,1.1-1.84,2.21-2.79,3.35-.95,1.13-1.92,2.29-2.92,3.47-1,1.18-2.04,2.39-3.11,3.63-1.07,1.23-2.2,2.51-3.39,3.84-1.19,1.33-2.44,2.72-3.78,4.18Z" style="fill: #437e71;"/>
    <path d="M119.84,183.84c-2.09.23-4.04.43-5.89.59-1.84.17-3.58.3-5.23.41-1.65.11-3.23.19-4.74.25-1.52.06-2.98.09-4.4.1-1.43.01-2.82,0-4.22,0s-2.79-.03-4.2-.07-2.85-.09-4.33-.16-3-.15-4.58-.26c-1.58-.1-3.23-.23-4.96-.37.98-1.15,1.93-2.27,2.86-3.35.93-1.08,1.84-2.14,2.74-3.17s1.78-2.04,2.65-3.03c.87-.99,1.74-1.96,2.61-2.92s1.76-1.92,2.7-2.87c.94-.95,1.92-1.89,2.93-2.84,1.01-.94,2.05-1.88,3.13-2.83,1.08-.95,2.2-1.9,3.35-2.86,1.16-.96,2.36-1.94,3.6-2.93,1.25-.99,2.54-2,3.89-3.04,1.35-1.04,2.75-2.1,4.22-3.19,1.46-1.09,2.99-2.22,4.6-3.38,1.61-1.17,3.27-2.37,4.99-3.62,1.72-1.25,3.5-2.54,5.34-3.88,1.86-.05,3.61-.12,5.26-.21,1.66-.08,3.23-.18,4.74-.28,1.51-.1,2.95-.21,4.36-.32,1.41-.11,2.78-.23,4.13-.36s2.7-.26,4.05-.39c1.35-.14,2.71-.28,4.1-.43,1.39-.15,2.81-.31,4.28-.48,1.47-.17,3-.35,4.6-.53,1.6-.19,3.28-.39,5.06-.6-1.44,1.37-2.86,2.7-4.25,3.98-1.39,1.28-2.74,2.53-4.07,3.74s-2.62,2.38-3.89,3.53c-1.27,1.15-2.5,2.26-3.72,3.36s-2.4,2.17-3.56,3.23c-1.16,1.06-2.31,2.1-3.43,3.14-1.12,1.04-2.23,2.06-3.31,3.09-1.09,1.03-2.16,2.05-3.21,3.08s-2.1,2.06-3.12,3.1c-1.02,1.04-2.02,2.1-3,3.18-.98,1.07-1.96,2.15-2.95,3.24s-1.97,2.19-2.97,3.31c-1,1.12-2.01,2.26-3.04,3.43-1.03,1.17-2.07,2.37-3.14,3.61Z" style="fill: #fff;"/>
    <path d="M41.69,224.86c-1.83-.14-3.56-.27-5.2-.39-1.65-.12-3.22-.23-4.74-.34-1.52-.1-2.98-.2-4.4-.29-1.43-.09-2.82-.17-4.21-.25-1.39-.08-2.76-.15-4.15-.22-1.39-.07-2.79-.13-4.24-.18-1.44-.05-2.92-.1-4.46-.14-1.54-.04-3.14-.07-4.83-.09-1.69-.02-3.46-.03-5.34-.01,1.35-1.47,2.65-2.89,3.9-4.24,1.25-1.36,2.45-2.66,3.62-3.92,1.16-1.26,2.29-2.47,3.38-3.66,1.09-1.18,2.15-2.33,3.19-3.45,1.04-1.12,2.05-2.22,3.05-3.31,1-1.09,1.99-2.16,2.97-3.23.98-1.07,1.96-2.14,2.94-3.21s1.97-2.15,2.96-3.25c1-1.1,2.01-2.21,3.04-3.35s2.08-2.3,3.17-3.5c1.08-1.2,2.19-2.43,3.34-3.71,1.15-1.28,2.34-2.6,3.58-3.98,1.92.19,3.71.37,5.41.56s3.29.37,4.83.55c1.54.18,3.01.36,4.45.53s2.86.35,4.27.52c1.41.17,2.83.34,4.28.51,1.45.17,2.93.34,4.47.51,1.54.17,3.15.34,4.86.51,1.71.17,3.52.34,5.46.5-1.24,1.46-2.42,2.86-3.55,4.19-1.13,1.33-2.2,2.61-3.24,3.84s-2.05,2.42-3.03,3.59-1.95,2.29-2.9,3.41c-.95,1.12-1.9,2.22-2.84,3.31-.95,1.1-1.89,2.19-2.86,3.29s-1.94,2.21-2.94,3.35c-1,1.13-2.03,2.29-3.1,3.48-1.07,1.19-2.18,2.42-3.35,3.7-1.17,1.28-2.38,2.6-3.67,3.99-1.29,1.39-2.65,2.85-4.1,4.38Z" style="fill: #fff;"/>
    <path d="M168.23,177.05c-1.91.24-3.73.48-5.49.73-1.76.24-3.44.48-5.08.72-1.63.24-3.21.47-4.76.7-1.54.23-3.05.46-4.54.68-1.49.22-2.96.45-4.42.67-1.47.22-2.93.44-4.42.66-1.48.22-2.98.44-4.52.66-1.53.22-3.1.44-4.72.66-1.62.22-3.29.44-5.03.66-1.74.22-3.54.44-5.42.65,1.07-1.24,2.11-2.44,3.14-3.61,1.03-1.17,2.04-2.31,3.04-3.43,1-1.12,1.99-2.22,2.97-3.31s1.96-2.17,2.95-3.24c.98-1.07,1.98-2.13,3-3.18,1.02-1.04,2.06-2.07,3.12-3.1s2.13-2.05,3.21-3.08c1.09-1.03,2.19-2.05,3.31-3.09,1.12-1.04,2.27-2.08,3.43-3.14,1.16-1.06,2.35-2.13,3.56-3.23s2.45-2.21,3.72-3.36c1.27-1.15,2.56-2.32,3.89-3.53s2.68-2.45,4.07-3.74c1.39-1.28,2.8-2.61,4.25-3.98,1.78-.21,3.46-.41,5.07-.59,1.61-.18,3.14-.35,4.62-.52s2.9-.31,4.3-.45,2.76-.27,4.12-.4c1.36-.12,2.71-.24,4.07-.35s2.75-.21,4.17-.3c1.42-.09,2.88-.18,4.4-.26,1.52-.08,3.11-.14,4.79-.19,1.68-.05,3.44-.09,5.32-.1-1.35,1.47-2.65,2.89-3.91,4.27-1.26,1.37-2.48,2.7-3.67,3.99-1.19,1.29-2.35,2.54-3.48,3.76-1.13,1.22-2.24,2.42-3.34,3.6-1.09,1.18-2.17,2.34-3.24,3.49s-2.13,2.29-3.18,3.44c-1.06,1.15-2.11,2.29-3.17,3.45-1.06,1.16-2.12,2.33-3.19,3.52-1.07,1.19-2.17,2.36-3.25,3.51-1.07,1.15-2.14,2.29-3.2,3.42s-2.13,2.27-3.2,3.42c-1.08,1.15-2.16,2.31-3.27,3.51Z" style="fill: #437e71;"/>
    <path d="M183.35,205.26c-1.7.23-3.35.49-4.97.77s-3.19.59-4.72.91c-1.54.32-3.04.66-4.52,1-1.48.34-2.94.7-4.38,1.06-1.44.36-2.87.74-4.3,1.12-1.43.38-2.86.77-4.31,1.18-1.45.4-2.91.82-4.4,1.25-1.49.43-3.01.87-4.57,1.33s-3.17.93-4.83,1.42-3.38,1-5.17,1.53c-1.79.53-3.65,1.08-5.6,1.64,1.58-1.8,3.05-3.47,4.41-5.04,1.37-1.57,2.64-3.03,3.85-4.42,1.2-1.38,2.33-2.69,3.41-3.92,1.07-1.24,2.09-2.41,3.07-3.54.98-1.13,1.92-2.21,2.83-3.25.91-1.05,1.8-2.06,2.66-3.05.87-.99,1.72-1.96,2.57-2.93.85-.96,1.69-1.92,2.54-2.87.85-.96,1.71-1.91,2.58-2.89.87-.97,1.77-1.96,2.69-2.97.92-1.01,1.87-2.05,2.87-3.14,1-1.08,2.04-2.21,3.15-3.41,2.12-.27,4.11-.5,5.99-.71,1.88-.21,3.65-.38,5.34-.53,1.69-.15,3.3-.28,4.86-.38s3.06-.19,4.53-.25c1.47-.06,2.91-.1,4.35-.12,1.43-.02,2.86,0,4.3-.06,1.44-.06,2.89-.14,4.36-.24,1.47-.1,2.98-.23,4.52-.39,1.54-.16,3.13-.34,4.78-.56-1.12,1.52-2.13,2.86-3.06,4.08s-1.8,2.31-2.64,3.32c-.83,1.02-1.63,1.96-2.42,2.86-.79.9-1.58,1.77-2.38,2.63-.8.86-1.62,1.72-2.48,2.61s-1.76,1.79-2.75,2.82c-.99,1.03-2.05,2.15-3.23,3.41s-2.48,2.65-3.95,4.25c-1.47,1.6-3.12,3.4-5.01,5.48Z" style="fill: #437e71;"/>
    <path d="M211.27,173.8c-1.65.22-3.24.4-4.78.56-1.54.16-3.05.29-4.52.39-1.47.1-2.92.18-4.36.24-1.44.06-2.87.05-4.3.06-1.43.02-2.87.06-4.35.12-1.47.06-2.97.14-4.53.25s-3.17.23-4.86.38c-1.69.15-3.46.33-5.34.53-1.88.21-3.87.44-5.99.71,1.11-1.2,2.2-2.36,3.27-3.51,1.08-1.15,2.14-2.29,3.2-3.42s2.13-2.27,3.2-3.42c1.07-1.15,2.18-2.32,3.25-3.51,1.07-1.19,2.13-2.37,3.19-3.52,1.06-1.16,2.11-2.31,3.17-3.45,1.06-1.15,2.12-2.29,3.18-3.44s2.15-2.31,3.24-3.49c1.09-1.18,2.2-2.37,3.34-3.6,1.13-1.22,2.29-2.47,3.48-3.76,1.19-1.29,2.41-2.61,3.67-3.99,1.26-1.37,2.56-2.79,3.91-4.27,2.12-.01,4.07-.07,5.89-.14s3.53-.17,5.15-.28,3.16-.24,4.66-.38c1.5-.14,2.95-.29,4.39-.45,1.44-.16,2.87-.34,4.32-.52,1.45-.19,2.92-.39,4.44-.61s3.09-.45,4.74-.71,3.38-.53,5.23-.82c-1.41,1.38-2.74,2.71-4.01,4.02-1.27,1.3-2.48,2.58-3.64,3.83-1.16,1.25-2.27,2.48-3.34,3.69s-2.1,2.41-3.1,3.6-1.97,2.37-2.93,3.56c-.95,1.19-1.89,2.37-2.81,3.58-.92,1.2-1.84,2.41-2.76,3.65-.92,1.24-1.83,2.49-2.76,3.79-.92,1.29-1.87,2.51-2.78,3.73-.91,1.22-1.79,2.42-2.66,3.61-.87,1.19-1.72,2.37-2.57,3.53-.85,1.17-1.69,2.32-2.53,3.46Z" style="fill: #fff;"/>
    <path d="M131.59,218.48c-2.14.62-4.16,1.2-6.09,1.74-1.93.54-3.76,1.04-5.51,1.5-1.75.46-3.43.89-5.05,1.29-1.62.4-3.19.77-4.72,1.11-1.53.34-3.02.66-4.5.95-1.48.29-2.93.55-4.39.79s-2.91.45-4.37.63c-1.46.18-2.94.33-4.44.44s-3.02.18-4.56.19c-1.54.01-3.15,0-4.83,0,1.34-1.46,2.59-2.84,3.78-4.18,1.19-1.33,2.32-2.61,3.39-3.84,1.08-1.24,2.11-2.45,3.11-3.63,1-1.18,1.97-2.33,2.92-3.47.95-1.13,1.87-2.25,2.79-3.35.91-1.1,1.81-2.19,2.71-3.28.9-1.09,1.79-2.17,2.69-3.27.9-1.09,1.81-2.19,2.73-3.31.92-1.12,1.86-2.25,2.83-3.42s1.96-2.35,2.99-3.58c1.03-1.23,2.1-2.5,3.22-3.82,1.12-1.32,2.3-2.7,3.54-4.14,1.88-.21,3.68-.43,5.42-.65,1.74-.22,3.41-.44,5.03-.66,1.62-.22,3.19-.44,4.72-.66,1.53-.22,3.04-.44,4.52-.66,1.48-.22,2.95-.44,4.42-.66,1.47-.22,2.94-.44,4.42-.67,1.49-.22,2.99-.45,4.54-.68,1.54-.23,3.12-.46,4.76-.7,1.63-.24,3.32-.48,5.08-.72,1.76-.24,3.58-.49,5.49-.73-1.11,1.2-2.16,2.32-3.15,3.41-1,1.08-1.95,2.12-2.87,3.14-.92,1.01-1.81,2-2.69,2.97-.87.97-1.73,1.93-2.58,2.89-.85.96-1.7,1.91-2.54,2.87-.85.96-1.7,1.93-2.57,2.93-.87.99-1.75,2.01-2.66,3.05-.91,1.05-1.85,2.13-2.83,3.25-.98,1.13-2,2.3-3.07,3.54-1.07,1.24-2.2,2.54-3.41,3.92-1.2,1.38-2.48,2.85-3.85,4.42-1.37,1.57-2.83,3.24-4.41,5.04Z" style="fill: #fff;"/>
    <path d="M245.76,167.02c-1.72.34-3.32.67-4.83.99-1.51.32-2.93.63-4.3.93-1.37.3-2.68.59-3.97.87-1.29.28-2.55.56-3.82.83-1.27.27-2.54.54-3.85.81-1.31.27-2.66.53-4.07.8-1.42.26-2.9.53-4.5.79-1.59.26-3.3.52-5.15.77.84-1.14,1.68-2.3,2.53-3.46.85-1.17,1.7-2.34,2.57-3.53.87-1.19,1.75-2.39,2.66-3.61.91-1.22,1.85-2.44,2.78-3.73.92-1.29,1.84-2.55,2.76-3.79.92-1.24,1.83-2.45,2.76-3.65.92-1.2,1.86-2.39,2.81-3.58.95-1.19,1.93-2.37,2.93-3.56s2.03-2.39,3.1-3.6,2.18-2.44,3.34-3.69c1.16-1.25,2.37-2.52,3.64-3.83,1.27-1.3,2.61-2.64,4.01-4.02,1.84-.29,3.57-.57,5.21-.83s3.2-.51,4.71-.74c1.51-.23,2.96-.45,4.39-.65s2.84-.4,4.26-.58c1.42-.18,2.85-.36,4.32-.53,1.47-.17,2.98-.32,4.57-.47s3.25-.28,5.04-.4,3.68-.22,5.74-.29c-1.68,1.05-3.27,2.07-4.79,3.07-1.52,1-2.97,1.99-4.35,2.96-1.38.98-2.7,1.95-3.97,2.92-1.27.97-2.48,1.94-3.65,2.92-1.17.98-2.3,1.97-3.4,2.98-1.1,1.01-2.16,2.04-3.2,3.09-1.04,1.06-2.06,2.15-3.06,3.28-1,1.13-1.99,2.3-2.96,3.53s-1.9,2.59-2.8,3.95-1.77,2.74-2.61,4.15c-.85,1.42-1.67,2.86-2.47,4.35s-1.59,3-2.37,4.55Z" style="fill: #437e71;"/>
    <path d="M257.63,210.86c-1.89-.13-3.63-.27-5.25-.42-1.63-.15-3.14-.31-4.58-.47-1.44-.16-2.81-.33-4.15-.5-1.33-.17-2.63-.34-3.92-.52-1.29-.18-2.57-.36-3.88-.55s-2.63-.38-4.01-.58c-1.38-.2-2.82-.41-4.34-.63s-3.13-.44-4.86-.67c1.43-1.61,2.67-3.07,3.78-4.44,1.11-1.37,2.09-2.65,2.98-3.87.89-1.23,1.69-2.4,2.44-3.54s1.43-2.26,2.08-3.38c.65-1.11,1.26-2.22,1.86-3.35.6-1.13,1.18-2.27,1.76-3.45.58-1.18,1.16-2.4,1.76-3.68.6-1.28,1.21-2.62,1.86-4.04.65-1.42,1.34-2.93,2.1-4.55.76-1.62,1.58-3.35,2.51-5.21,1.72-.34,3.36-.64,4.93-.92,1.57-.27,3.09-.52,4.57-.74,1.48-.22,2.93-.41,4.37-.59,1.44-.17,2.88-.33,4.34-.46,1.46-.13,2.95-.25,4.51-.34,1.55-.09,3.14-.19,4.9-.21,1.76-.02,3.55-.06,5.4-.1s3.76-.1,5.76-.16c-1,1.77-1.91,3.47-2.75,5.1-.84,1.64-1.62,3.21-2.36,4.73s-1.44,2.99-2.11,4.42-1.33,2.82-1.98,4.19-1.3,2.71-1.96,4.03c-.66,1.32-1.33,2.63-2.01,3.94-.68,1.31-1.37,2.61-2.1,3.92-.73,1.31-1.48,2.64-2.29,3.98s-1.66,2.71-2.6,4.11-1.94,2.84-3.05,4.32c-1.11,1.48-2.33,3.02-3.71,4.62Z" style="fill: #437e71;"/>
    <path d="M284.55,163.5c-2,.07-3.91.12-5.76.16s-3.64.08-5.4.1c-1.76.02-3.35.12-4.9.21-1.55.09-3.04.21-4.51.34-1.46.13-2.9.29-4.34.46-1.44.17-2.89.37-4.37.59-1.48.22-2.99.46-4.57.74-1.57.27-3.21.58-4.93.92.78-1.55,1.56-3.07,2.37-4.55s1.63-2.93,2.47-4.35c.85-1.42,1.71-2.8,2.61-4.15s1.82-2.72,2.8-3.95,1.96-2.4,2.96-3.53c1-1.13,2.02-2.22,3.06-3.28,1.04-1.06,2.1-2.09,3.2-3.09,1.1-1.01,2.22-2,3.4-2.98,1.17-.98,2.38-1.95,3.65-2.92,1.27-.97,2.59-1.94,3.97-2.92,1.38-.98,2.83-1.96,4.35-2.96,1.52-1,3.12-2.02,4.79-3.07,2.06-.07,4.07-.09,5.89-.11,1.83-.02,3.52-.05,5.11-.09,1.6-.03,3.1-.07,4.55-.12,1.45-.04,2.85-.09,4.22-.14,1.38-.05,2.73-.11,4.1-.16,1.37-.06,2.75-.12,4.17-.19,1.42-.07,2.88-.14,4.4-.23,1.52-.08,3.12-.17,4.8-.27-1.31,1-2.58,1.96-3.82,2.9-1.24.94-2.44,1.86-3.62,2.77-1.18.91-2.32,1.81-3.45,2.71-1.12.9-2.23,1.8-3.31,2.71-1.09.91-2.15,1.82-3.21,2.76-1.06.94-2.11,1.89-3.15,2.88-1.04.99-2.08,2.01-3.12,3.07s-2.08,2.17-3.12,3.35c-1.04,1.17-1.97,2.37-2.93,3.62-.95,1.25-1.9,2.54-2.83,3.9-.94,1.35-1.87,2.77-2.79,4.24-.92,1.48-1.84,3.02-2.76,4.65Z" style="fill: #fff;"/>
    <path d="M222.64,206.53c-1.73-.23-3.37-.43-4.94-.62s-3.08-.34-4.56-.49c-1.47-.14-2.91-.27-4.34-.38-1.43-.11-2.85-.2-4.3-.28s-2.92-.14-4.45-.19c-1.53-.05-3.12-.08-4.82-.08s-3.49,0-5.46.13c-1.96.12-4.09.33-6.43.64,1.89-2.09,3.54-3.88,5.01-5.48,1.47-1.6,2.77-2.99,3.95-4.25s2.24-2.38,3.23-3.41c.99-1.03,1.89-1.93,2.75-2.82s1.68-1.75,2.48-2.61c.8-.86,1.59-1.73,2.38-2.63.79-.9,1.59-1.85,2.42-2.86.83-1.02,1.7-2.11,2.64-3.32s1.94-2.55,3.06-4.08c1.86-.25,3.56-.51,5.15-.77,1.59-.26,3.08-.53,4.5-.79,1.42-.26,2.76-.53,4.07-.8,1.31-.27,2.59-.53,3.85-.81,1.27-.27,2.53-.55,3.82-.83,1.29-.28,2.6-.57,3.97-.87,1.37-.3,2.79-.61,4.3-.93,1.51-.32,3.11-.65,4.83-.99-.93,1.86-1.75,3.59-2.51,5.21-.76,1.62-1.45,3.12-2.1,4.55-.65,1.42-1.27,2.76-1.86,4.04-.6,1.28-1.18,2.5-1.76,3.68-.58,1.18-1.16,2.32-1.76,3.45-.6,1.13-1.21,2.24-1.86,3.35-.65,1.11-1.34,2.23-2.08,3.38s-1.55,2.32-2.44,3.54c-.89,1.23-1.87,2.5-2.98,3.87-1.11,1.37-2.35,2.83-3.78,4.44Z" style="fill: #fff;"/>
    <path d="M162.9,47.25c2.03-.21,4.04-.44,6.03-.69,1.99-.25,3.97-.53,5.93-.81,1.96-.29,3.9-.59,5.83-.89,1.92-.31,3.83-.62,5.72-.94,1.89-.32,3.77-.64,5.62-.96,1.86-.32,3.7-.63,5.53-.95,1.83-.31,3.64-.61,5.43-.91,1.79-.29,3.57-.58,5.34-.85s3.51-.53,5.25-.77c1.73-.24,3.46-.46,5.16-.67,1.71-.2,3.4-.39,5.08-.55,1.68-.16,3.35-.3,5-.42,1.65-.12,3.29-.21,4.92-.28,1.63-.07,3.26-.12,4.85-.11,1.59,0,3.14.05,4.66.13,1.52.08,3.01.2,4.47.35s2.89.33,4.3.54c1.41.21,2.79.44,4.15.69s2.71.53,4.03.82c1.33.29,2.64.6,3.93.93,1.3.32,2.58.66,3.86,1.01s2.54.7,3.8,1.06c1.26.36,2.51.73,3.76,1.1s2.5.74,3.74,1.11c1.25.37,2.49.74,3.74,1.1,1.25.36,2.5.72,3.76,1.07s2.53.69,3.8,1.02c1.28.33,2.56.65,3.86.95s2.61.59,3.94.85,2.67.51,4.04.73c1.37.22,2.75.42,4.16.59,1.41.17,2.84.31,4.3.42,1.46.11,2.95.19,4.47.23,1.52.04,3.08.03,4.67-.03,1.59-.06,3.2-.15,4.83-.29,1.63-.13,3.28-.3,4.94-.5,1.67-.2,3.35-.43,5.06-.69,1.7-.26,3.43-.55,5.17-.87,1.74-.31,3.5-.65,5.28-1.02,1.78-.36,3.57-.74,5.39-1.14,1.81-.4,3.64-.81,5.49-1.24,1.85-.43,3.71-.87,5.59-1.32s3.78-.9,5.69-1.36,3.84-.91,5.78-1.36c1.94-.45,3.89-.9,5.86-1.33,1.97-.44,3.94-.86,5.93-1.26,1.99-.4,3.99-.79,5.99-1.14,2.01-.36,4.02-.68,6.05-.98,2.02-.29,4.05-.54,6.09-.75,2.03-.2,4.07-.36,6.11-.46-1.48,1.6-3.03,3.25-4.61,4.92s-3.2,3.37-4.84,5.08c-1.64,1.71-3.3,3.42-4.96,5.13s-3.33,3.42-4.99,5.12c-1.66,1.7-3.31,3.38-4.94,5.04s-3.25,3.31-4.84,4.92c-1.59,1.62-3.16,3.21-4.71,4.78-1.54,1.56-3.06,3.1-4.54,4.61-1.48,1.51-2.93,2.98-4.35,4.43-1.42,1.45-2.8,2.86-4.16,4.25-1.35,1.39-2.67,2.74-3.96,4.07-1.29,1.33-2.54,2.63-3.76,3.9-1.22,1.27-2.41,2.52-3.57,3.74-1.16,1.22-2.29,2.42-3.39,3.6-1.1,1.18-2.15,2.33-3.17,3.41-1.02,1.09-2.03,2.12-3.02,3.12-.99,1-1.97,1.96-2.94,2.89-.97.93-1.94,1.82-2.9,2.69-.96.87-1.93,1.71-2.89,2.54-.96.83-1.93,1.63-2.9,2.43-.97.79-1.95,1.57-2.93,2.35-.98.77-1.97,1.54-2.97,2.3-1,.76-2.01,1.53-3.02,2.29-1.02.77-2.04,1.53-3.08,2.31s-2.08,1.56-3.14,2.36c-1.06.8-2.12,1.61-3.2,2.45-1.07.83-2.16,1.69-3.24,2.56-1.09.88-2.18,1.78-3.28,2.71-1.1.93-2.2,1.89-3.3,2.89-1.1,1-2.2,2.03-3.3,3.1-1.1,1.07-2.19,2.19-3.27,3.35-1.08,1.16-2.13,2.38-3.11,3.59-.97,1.22-1.92,2.46-2.83,3.72-.91,1.26-1.8,2.55-2.65,3.85-.86,1.3-1.68,2.63-2.49,3.97-.8,1.34-1.58,2.7-2.34,4.07s-1.49,2.76-2.22,4.16c-.72,1.4-1.43,2.81-2.13,4.24-.7,1.43-1.39,2.86-2.09,4.31-.7,1.45-1.4,2.91-2.12,4.38-.72,1.47-1.43,2.94-2.17,4.42-.73,1.48-1.48,2.96-2.25,4.44-.77,1.48-1.57,2.96-2.4,4.44-.83,1.48-1.71,2.96-2.63,4.44s-1.9,2.96-2.95,4.44c-1.05,1.48-2.16,2.97-3.37,4.46-1.74-.13-3.43-.27-5.08-.42-1.65-.16-3.25-.32-4.83-.5-1.57-.18-3.11-.36-4.63-.56-1.51-.19-3-.39-4.47-.59s-2.91-.4-4.35-.6c-1.43-.2-2.85-.4-4.27-.59-1.41-.19-2.82-.39-4.22-.57-1.4-.18-2.8-.36-4.2-.53-1.4-.17-2.8-.33-4.21-.49-1.41-.15-2.82-.29-4.24-.42s-2.85-.25-4.3-.35c-1.44-.1-2.9-.2-4.38-.27-1.47-.08-2.97-.14-4.48-.18-1.51-.04-3.04-.07-4.6-.08s-3.14.03-4.76.14-3.27.26-4.95.46c-1.68.2-3.38.45-5.11.74-1.73.29-3.47.61-5.24.97-1.77.36-3.55.75-5.35,1.17-1.8.42-3.61.86-5.43,1.33-1.82.46-3.66.95-5.5,1.45-1.84.5-3.69,1.02-5.55,1.54s-3.72,1.06-5.58,1.61c-1.86.54-3.73,1.09-5.59,1.64-1.86.55-3.72,1.1-5.58,1.64-1.86.54-3.71,1.08-5.56,1.61s-3.69,1.05-5.52,1.55c-1.83.51-3.66,1-5.47,1.47s-3.61.92-5.39,1.35c-1.78.43-3.55.83-5.3,1.21s-3.48.72-5.19,1.03-3.4.58-5.06.81c-1.66.23-3.3.42-4.9.56-1.61.14-3.18.24-4.73.27-1.54.04-3.06.03-4.6.02-1.53,0-3.07-.03-4.61-.06-1.54-.03-3.08-.07-4.63-.12-1.55-.05-3.1-.11-4.66-.18-1.56-.07-3.12-.15-4.69-.24s-3.15-.18-4.74-.28c-1.59-.1-3.18-.21-4.79-.32-1.6-.11-3.22-.23-4.84-.35-1.63-.12-3.26-.24-4.91-.37-1.65-.12-3.31-.25-4.98-.38s-3.36-.25-5.07-.38c-1.7-.12-3.42-.25-5.16-.37-1.74-.12-3.49-.23-5.26-.34-1.77-.11-3.56-.21-5.38-.3s-3.65-.18-5.5-.25c-1.86-.07-3.73-.13-5.64-.17s-3.83-.07-5.79-.08c1.32-1.43,2.63-2.85,3.92-4.25,1.29-1.4,2.57-2.78,3.83-4.14,1.26-1.36,2.5-2.7,3.72-4.03,1.22-1.32,2.43-2.63,3.61-3.92,1.19-1.29,2.36-2.56,3.51-3.82,1.15-1.26,2.28-2.5,3.4-3.72,1.12-1.23,2.22-2.44,3.3-3.63s2.15-2.38,3.21-3.55c1.06-1.17,2.1-2.33,3.13-3.47,1.03-1.14,2.05-2.28,3.05-3.4,1.01-1.12,2-2.23,2.99-3.34.99-1.1,1.97-2.2,2.94-3.28.97-1.09,1.94-2.17,2.91-3.24.96-1.07,1.93-2.14,2.88-3.2.96-1.06,1.94-2.12,2.88-3.18.94-1.05,1.9-2.1,2.9-3.15s2.02-2.09,3.08-3.13c1.06-1.04,2.14-2.09,3.26-3.13s2.26-2.08,3.43-3.12c1.17-1.04,2.38-2.08,3.6-3.12s2.49-2.08,3.77-3.13,2.59-2.09,3.92-3.13,2.68-2.09,4.05-3.14c1.37-1.05,2.76-2.1,4.17-3.15s2.83-2.11,4.27-3.16c1.44-1.06,2.88-2.12,4.34-3.18,1.45-1.06,2.91-2.13,4.38-3.19,1.46-1.07,2.92-2.14,4.38-3.21,1.46-1.07,2.91-2.15,4.34-3.22,1.44-1.08,2.86-2.16,4.26-3.24s2.78-2.17,4.13-3.26,2.66-2.18,3.93-3.27c1.27-1.09,2.55-2.18,3.65-3.29,1.11-1.11,2.18-2.23,3.22-3.38,1.04-1.15,2.04-2.32,3.01-3.51.97-1.19,1.91-2.4,2.81-3.63.91-1.23,1.78-2.49,2.63-3.76.85-1.27,1.67-2.57,2.47-3.89.8-1.32,1.57-2.65,2.33-4.01s1.5-2.73,2.22-4.12,1.44-2.8,2.15-4.23,1.41-2.87,2.14-4.33c.72-1.46,1.46-2.93,2.22-4.42.76-1.49,1.54-3,2.36-4.51.82-1.52,1.67-3.05,2.56-4.58.89-1.54,1.83-3.08,2.82-4.63.99-1.55,2.04-3.1,3.15-4.65,1.11-1.55,2.28-3.1,3.52-4.64M162.47,45.33c-1.3,1.51-2.53,3.03-3.69,4.56-1.16,1.53-2.25,3.06-3.29,4.59s-2.02,3.06-2.95,4.59c-.93,1.52-1.82,3.04-2.66,4.55s-1.66,3.01-2.44,4.49c-.78,1.49-1.54,2.96-2.27,4.42-.73,1.46-1.44,2.9-2.16,4.34-.72,1.43-1.44,2.85-2.17,4.25s-1.46,2.79-2.22,4.15c-.75,1.37-1.52,2.71-2.31,4.04-.79,1.33-1.6,2.64-2.43,3.93s-1.7,2.56-2.59,3.8-1.81,2.47-2.76,3.68c-.95,1.21-1.93,2.39-2.94,3.56-1.01,1.16-2.06,2.31-3.14,3.43-1.08,1.12-2.21,2.22-3.44,3.31-1.23,1.09-2.51,2.18-3.82,3.27-1.31,1.09-2.66,2.17-4.04,3.26-1.37,1.08-2.77,2.17-4.19,3.24-1.42,1.08-2.85,2.16-4.29,3.23-1.44,1.07-2.89,2.14-4.34,3.21-1.45,1.07-2.9,2.13-4.35,3.2-1.45,1.06-2.89,2.12-4.32,3.18-1.43,1.06-2.85,2.11-4.26,3.17-1.41,1.05-2.8,2.11-4.18,3.16-1.38,1.05-2.73,2.1-4.07,3.14-1.34,1.05-2.65,2.09-3.94,3.14s-2.56,2.09-3.8,3.13c-1.24,1.04-2.46,2.08-3.64,3.13-1.19,1.04-2.35,2.08-3.48,3.12s-2.23,2.08-3.31,3.13c-1.07,1.04-2.12,2.09-3.14,3.13-1.02,1.05-2.01,2.09-2.97,3.14-.96,1.05-1.9,2.11-2.87,3.17s-1.93,2.13-2.89,3.2c-.97,1.07-1.93,2.15-2.91,3.23-.97,1.08-1.95,2.17-2.94,3.27s-1.98,2.2-2.98,3.32c-1,1.12-2.01,2.24-3.04,3.38-1.02,1.14-2.06,2.28-3.1,3.44-1.05,1.16-2.11,2.33-3.18,3.52-1.07,1.18-2.16,2.38-3.27,3.6-1.1,1.21-2.22,2.44-3.36,3.68-1.14,1.24-2.29,2.5-3.46,3.77-1.17,1.27-2.36,2.56-3.56,3.87-1.2,1.31-2.43,2.63-3.66,3.97-1.24,1.34-2.49,2.7-3.76,4.07s-2.56,2.77-3.86,4.18c-1.3,1.41-2.61,2.84-3.94,4.28,1.96-.01,3.89,0,5.79.02s3.79.07,5.65.12c1.86.05,3.7.12,5.51.2s3.61.17,5.39.27,3.53.2,5.28.31c1.74.11,3.46.23,5.17.35,1.71.12,3.4.24,5.08.36,1.68.12,3.34.25,4.99.37,1.65.12,3.29.25,4.92.37,1.63.12,3.24.24,4.85.36,1.61.12,3.2.23,4.79.33,1.59.11,3.16.21,4.73.3,1.57.09,3.13.18,4.69.26,1.56.08,3.1.15,4.65.22,1.54.06,3.08.12,4.62.17,1.53.05,3.06.08,4.59.11s3.05.04,4.57.04c1.52,0,3.03,0,4.58-.05,1.55-.06,3.13-.17,4.74-.33,1.61-.16,3.25-.37,4.92-.62,1.67-.25,3.36-.54,5.07-.86s3.45-.68,5.2-1.07c1.75-.39,3.52-.8,5.31-1.25,1.79-.44,3.59-.91,5.4-1.39,1.81-.48,3.64-.98,5.47-1.5s3.68-1.04,5.53-1.58,3.71-1.08,5.56-1.63,3.72-1.1,5.58-1.65,3.73-1.1,5.59-1.64c1.86-.54,3.72-1.08,5.57-1.61s3.7-1.04,5.54-1.54c1.84-.5,3.67-.98,5.49-1.43,1.82-.46,3.62-.89,5.41-1.3,1.79-.41,3.56-.78,5.32-1.13,1.76-.34,3.49-.65,5.2-.92,1.71-.27,3.4-.49,5.06-.67,1.66-.18,3.29-.31,4.9-.38,1.6-.07,3.16-.08,4.71-.07,1.54,0,3.06.04,4.56.08s2.98.11,4.45.19c1.46.08,2.91.18,4.35.29s2.86.24,4.27.37c1.41.14,2.82.29,4.22.45s2.8.33,4.19.51c1.39.18,2.79.37,4.19.56s2.8.4,4.21.6c1.41.2,2.83.41,4.26.62s2.88.42,4.35.62c1.47.21,2.96.41,4.47.6s3.06.39,4.64.56c1.58.18,3.19.35,4.84.5s3.35.29,5.1.41c1.26-1.47,2.43-2.92,3.52-4.37,1.1-1.45,2.12-2.9,3.09-4.35.97-1.45,1.88-2.89,2.75-4.34.87-1.45,1.69-2.9,2.49-4.35.8-1.45,1.56-2.9,2.31-4.35s1.48-2.89,2.19-4.33c.71-1.44,1.39-2.88,2.07-4.31.68-1.43,1.34-2.85,2.01-4.26.67-1.41,1.34-2.81,2.03-4.2.68-1.39,1.38-2.76,2.09-4.13.71-1.36,1.44-2.71,2.19-4.05.75-1.34,1.52-2.66,2.32-3.96.8-1.31,1.62-2.59,2.47-3.86.85-1.27,1.72-2.52,2.63-3.75.9-1.23,1.84-2.44,2.8-3.63.96-1.19,2.03-2.37,3.08-3.5,1.06-1.13,2.12-2.21,3.19-3.25,1.07-1.04,2.14-2.04,3.21-3.01s2.14-1.9,3.2-2.81c1.06-.91,2.12-1.79,3.17-2.64s2.1-1.69,3.13-2.5,2.07-1.61,3.09-2.39c1.02-.78,2.03-1.55,3.03-2.31,1-.76,1.99-1.51,2.98-2.26.98-.75,1.96-1.49,2.92-2.24s1.92-1.49,2.87-2.25c.95-.75,1.9-1.52,2.84-2.29.94-.77,1.88-1.56,2.81-2.36.94-.8,1.87-1.62,2.81-2.47s1.88-1.71,2.83-2.61,1.9-1.83,2.87-2.79c.97-.97,1.95-1.97,2.95-3.01,1-1.05,2.01-2.14,3.09-3.29,1.09-1.15,2.2-2.32,3.34-3.51,1.14-1.19,2.31-2.41,3.51-3.65s2.43-2.5,3.69-3.8c1.26-1.29,2.56-2.61,3.88-3.96,1.33-1.35,2.68-2.72,4.07-4.13,1.39-1.4,2.81-2.84,4.26-4.3,1.45-1.46,2.93-2.95,4.44-4.46,1.51-1.52,3.04-3.06,4.6-4.62,1.56-1.57,3.14-3.15,4.73-4.76s3.21-3.24,4.83-4.88c1.62-1.64,3.25-3.29,4.88-4.95,1.63-1.66,3.26-3.32,4.87-4.98s3.21-3.31,4.78-4.94c1.57-1.63,3.11-3.25,4.59-4.82,1.49-1.58,2.93-3.12,4.29-4.6-2,.01-4,.1-6,.24s-4,.33-6.01.57c-2,.24-4,.52-5.99.84-1.99.32-3.98.67-5.96,1.04-1.98.38-3.95.78-5.92,1.19-1.96.42-3.92.85-5.86,1.3-1.94.44-3.87.9-5.79,1.35-1.92.46-3.82.91-5.71,1.37-1.89.46-3.76.91-5.62,1.35-1.86.44-3.7.88-5.53,1.3-1.83.42-3.64.83-5.43,1.22-1.79.39-3.57.76-5.32,1.11-1.76.35-3.49.67-5.21.97s-3.42.57-5.1.81-3.34.45-4.98.63c-1.64.18-3.26.32-4.86.43-1.6.11-3.18.18-4.74.2-1.56.03-3.09.01-4.59-.04-1.5-.05-2.96-.14-4.4-.26-1.44-.12-2.85-.28-4.25-.46-1.39-.18-2.76-.39-4.11-.63-1.35-.23-2.68-.49-4-.77s-2.61-.57-3.9-.88c-1.29-.31-2.56-.64-3.83-.98s-2.52-.69-3.77-1.05c-1.25-.36-2.5-.73-3.74-1.1-1.24-.37-2.48-.75-3.73-1.12-1.24-.38-2.48-.75-3.73-1.13s-2.5-.74-3.75-1.11-2.52-.72-3.8-1.07c-1.27-.35-2.56-.68-3.86-1-1.3-.32-2.61-.63-3.94-.91-1.33-.29-2.68-.56-4.05-.8s-2.76-.47-4.18-.66c-1.42-.19-2.86-.36-4.33-.49-1.47-.13-2.97-.23-4.51-.29s-3.11-.07-4.71-.05c-1.6.02-3.21.07-4.84.15-1.63.08-3.26.18-4.92.3-1.65.13-3.32.28-5,.45-1.68.17-3.38.36-5.08.58-1.71.21-3.43.44-5.17.69-1.74.25-3.49.51-5.26.79-1.77.28-3.55.57-5.35.86-1.8.3-3.62.61-5.45.92-1.83.31-3.68.63-5.54.95-1.86.32-3.74.64-5.64.96-1.9.32-3.81.63-5.73.94s-3.87.6-5.83.88-3.93.55-5.92.79c-1.99.25-4,.47-6.02.66h0Z" style="fill: #437e71;"/>
  </g>
  <g>
    <polyline points="429.42 33.74 136.79 369 447.79 369" style="fill: none; stroke: #d96d02; stroke-linecap: square; stroke-miterlimit: 10; stroke-width: 24px;"/>
    <polygon points="399.99 20.13 458.87 0 446.88 61.06 399.99 20.13" style="fill: #d96d02;"/>
  </g>
  <rect x="352.73" y="182" width="45.88" height="176" style="fill: #437e71;"/>
  <rect x="291.56" y="252" width="45.88" height="106" style="fill: #437e71;"/>
  <rect x="230.38" y="322" width="45.88" height="36" style="fill: #437e71;"/>
  <rect x="413.91" y="112" width="45.88" height="246" style="fill: #437e71;"/>
</svg>